<svg width="61" height="72" viewBox="0 0 61 72" fill="none" xmlns="http://www.w3.org/2000/svg">
<path d="M32.3916 36.8821C31.7501 36.6416 31.0286 36.4811 30.1466 36.4811C29.2646 36.4811 28.4626 36.6416 27.9016 36.8821V63.1002C27.9016 65.5057 25.8972 67.5102 23.4917 67.5102C21.0862 67.5102 19.0818 65.5057 19.0818 63.1002C19.0818 61.8173 18.0393 60.8553 16.8368 60.8553C15.5538 60.8553 14.5918 61.8977 14.5918 63.1002C14.5918 67.9911 18.6007 72 23.4915 72C28.3824 72 32.3913 67.9911 32.3913 63.1002L32.3916 36.8821Z" fill="black"/>
<path d="M32.3918 5.93345V2.24498C32.3918 0.962005 31.3494 0 30.1469 0C28.8639 0 27.9019 1.04248 27.9019 2.24498V5.93345C12.5077 7.21642 0.160356 21.0069 0 37.8442C0 38.9667 0.881984 39.8487 1.92441 39.8487C3.04687 39.8487 3.92886 39.0467 4.00889 38.0047C4.16941 35.3589 7.45625 33.1139 11.3853 33.1139C15.3941 33.1139 18.7616 35.4388 18.7616 38.1652C18.7616 39.2877 19.6436 40.1697 20.7661 40.1697C21.8885 40.1697 22.7705 39.2877 22.7705 38.1652C22.7705 35.4393 26.138 33.1139 30.1469 33.1139C34.1558 33.1139 37.5232 35.4388 37.5232 38.1652C37.5232 39.2877 38.4052 40.1697 39.5277 40.1697C40.6501 40.1697 41.5321 39.2877 41.5321 38.1652C41.5321 35.4393 44.8996 33.1139 48.9085 33.1139C52.7569 33.1139 56.1242 35.2788 56.2849 38.0047C56.3648 39.1272 57.2468 39.9291 58.3693 39.8487C59.4918 39.7687 60.2937 38.8867 60.2937 37.8442C60.1338 21.0069 47.8666 7.13612 32.3918 5.93345ZM48.9085 29.1048C44.9796 29.1048 41.6122 30.7083 39.5277 33.0337C37.4432 30.6282 33.9953 29.1048 30.1469 29.1048C26.218 29.1048 22.7705 30.7083 20.7661 33.0337C18.6816 30.6282 15.2336 29.1048 11.3853 29.1048C8.97978 29.1048 6.81483 29.6664 4.97088 30.7083C8.01778 18.7616 18.1999 9.86202 30.1467 9.86202C42.0935 9.86202 52.2758 18.6819 55.3226 30.7083C53.5587 29.6663 51.3137 29.1048 48.9082 29.1048H48.9085Z" fill="#05A062"/>
</svg>
