<svg width="161" height="129" viewBox="0 0 161 129" fill="none" xmlns="http://www.w3.org/2000/svg">
<g clip-path="url(#clip0_146_144)">
<path d="M77.9247 96.8622C77.5216 96.3684 77.029 95.9645 76.4468 95.6951C75.8646 95.4258 75.2824 95.2912 74.6106 95.2912C73.8941 95.2912 73.2671 95.4258 72.7297 95.74C72.1923 96.0542 71.7444 96.4133 71.3414 96.907C70.9831 97.4008 70.6696 97.9394 70.4905 98.5678C70.3113 99.1962 70.177 99.8246 70.177 100.453C70.177 101.081 70.2665 101.71 70.4905 102.293C70.7144 102.877 70.9831 103.415 71.3861 103.909C71.7444 104.358 72.2371 104.762 72.7745 105.031C73.3119 105.345 73.9389 105.48 74.6106 105.48C75.2376 105.48 75.8646 105.345 76.4468 105.031C77.029 104.717 77.5216 104.358 77.9247 103.909V107.41C77.3873 107.679 76.8051 107.904 76.2677 108.039C75.7302 108.218 75.148 108.308 74.5211 108.308C73.4462 108.308 72.5058 108.083 71.6101 107.679C70.7144 107.276 69.953 106.692 69.2813 105.974C68.6543 105.256 68.1169 104.448 67.7586 103.505C67.4003 102.563 67.2212 101.575 67.2212 100.543C67.2212 99.4655 67.4003 98.478 67.7586 97.4906C68.1169 96.5031 68.6095 95.6503 69.2813 94.9321C69.953 94.2139 70.7144 93.6304 71.6101 93.1816C72.5058 92.7327 73.5358 92.5083 74.6106 92.5083C75.1928 92.5083 75.775 92.5981 76.3572 92.7327C76.9394 92.8674 77.4321 93.0918 77.9695 93.3611V96.8622H77.9247Z" fill="black"/>
<path d="M38.0667 72.1753H35.1558V87.1669H38.0667V72.1753Z" fill="black"/>
<path d="M47.0238 87.2118H44.1129V74.7337H41.1123V72.1753H50.0692V74.7337H47.0238V87.2118Z" fill="black"/>
<path d="M54.5923 84.0251L53.3831 87.1671H50.293L56.1149 71.7715H58.3989L64.0866 87.1671H60.9517L59.7873 84.0251H54.5923ZM57.1002 76.1702L55.3984 81.6462H58.9364L57.1002 76.1702Z" fill="black"/>
<path d="M69.371 84.6534H73.4911V87.2118H66.46V72.1753H69.371V84.6534Z" fill="black"/>
<path d="M79.3133 72.1753H76.4023V87.1669H79.3133V72.1753Z" fill="black"/>
<path d="M85.8071 84.0251L84.5979 87.1671H81.5078L87.3298 71.7715H89.6138L95.3014 87.1671H92.1665L91.0021 84.0251H85.8071ZM88.315 76.1702L86.6132 81.6462H90.1512L88.315 76.1702Z" fill="black"/>
<path d="M97.6748 71.7715H99.7797L107.662 82.2746H107.707V72.1755H110.618V87.4813H108.513L100.631 77.0231H100.586V87.212H97.6748V71.7715Z" fill="black"/>
<path d="M46.3069 98.6127H46.2621L42.9033 108.128H41.8733L38.604 98.6127H38.5592L37.2157 107.904H34.3047L36.8126 92.5083H38.8727L42.545 102.383L46.083 92.5083H48.1879L50.4271 107.904H47.5161L46.3069 98.6127Z" fill="black"/>
<path d="M56.7866 104.762L55.5774 107.904H52.4873L58.3093 92.5083H60.5933L66.2809 107.904H63.146L61.9816 104.762H56.7866ZM59.2945 96.907L57.5927 102.338H61.1307L59.2945 96.907Z" fill="black"/>
<path d="M89.4345 98.7921V92.9121H92.3903V107.904H89.4345V101.216H84.0604V107.904H81.1494V92.9121H84.0604V98.7921H89.4345Z" fill="black"/>
<path d="M98.7049 92.9121H95.7939V107.904H98.7049V92.9121Z" fill="black"/>
<path d="M102.108 92.5083H104.213L112.095 103.011H112.14V92.9123H115.051V108.218H112.946L105.064 97.715H105.019V107.904H102.108V92.5083Z" fill="black"/>
<path d="M121.366 95.4706V98.7472H126.023V101.306H121.366V105.345H126.202V107.904H118.455V92.9121H126.202V95.4706H121.366Z" fill="black"/>
<path d="M139.548 107.904H136.01L132.383 101.844H132.338V107.904H129.427V92.9121H133.368C134.129 92.9121 134.801 93.0019 135.383 93.1814C136.01 93.361 136.503 93.6303 136.951 93.9893C137.398 94.3484 137.712 94.8422 137.981 95.3808C138.205 95.9643 138.339 96.6376 138.339 97.4455C138.339 97.9392 138.294 98.3881 138.16 98.8369C138.025 99.2858 137.846 99.7346 137.578 100.094C137.309 100.498 136.995 100.812 136.637 101.081C136.279 101.351 135.831 101.53 135.338 101.575L139.548 107.904ZM132.338 99.8244H132.696C133.099 99.8244 133.457 99.7795 133.816 99.7346C134.174 99.6449 134.443 99.5551 134.667 99.3756C134.935 99.196 135.114 98.9716 135.249 98.6574C135.383 98.3432 135.428 97.9841 135.428 97.5353C135.428 97.0864 135.383 96.6825 135.204 96.4132C135.07 96.1438 134.89 95.9194 134.622 95.7399C134.353 95.5603 134.084 95.4706 133.771 95.4257C133.457 95.3808 133.099 95.3359 132.696 95.3359H132.293V99.8244H132.338Z" fill="black"/>
<path d="M139.28 92.9121H142.683L145.281 98.1188L148.147 92.9121H151.551L146.848 101.036V107.904H143.937V101.036L139.28 92.9121Z" fill="black"/>
<path d="M37.8878 125.723L36.7682 128.641H33.9468L39.3209 114.412H41.4258L46.6656 128.641H43.7994L42.7245 125.723H37.8878ZM40.2166 118.497L38.6491 123.524H41.9184L40.2166 118.497Z" fill="black"/>
<path d="M55.309 117.823C55.0403 117.464 54.7716 117.195 54.4133 116.971C54.055 116.791 53.6968 116.656 53.2489 116.656C53.025 116.656 52.8011 116.701 52.6219 116.791C52.4428 116.881 52.2636 116.971 52.0845 117.105C51.9502 117.24 51.8158 117.419 51.7262 117.599C51.6367 117.778 51.5919 118.003 51.5919 118.227C51.5919 118.631 51.7262 118.946 51.9949 119.17C52.2636 119.394 52.6219 119.619 53.025 119.798C53.428 119.978 53.8759 120.157 54.3237 120.382C54.8164 120.561 55.2194 120.831 55.6225 121.145C56.0255 121.459 56.3838 121.863 56.6525 122.357C56.9212 122.851 57.0556 123.479 57.0556 124.242C57.0556 124.96 56.966 125.589 56.7421 126.172C56.5182 126.756 56.2495 127.249 55.8464 127.653C55.4433 128.057 54.9955 128.416 54.4133 128.641C53.8311 128.865 53.2041 129 52.4876 129C51.5471 129 50.6962 128.73 50.0244 128.237C49.3079 127.743 48.7257 127.07 48.2778 126.262L50.0244 124.556C50.114 124.825 50.2483 125.095 50.3827 125.319C50.5618 125.544 50.741 125.768 50.9649 125.948C51.1888 126.127 51.4127 126.262 51.6814 126.396C51.9502 126.486 52.2189 126.576 52.4876 126.576C52.7563 126.576 52.9802 126.531 53.2041 126.396C53.428 126.307 53.6072 126.127 53.7863 125.948C53.9655 125.768 54.055 125.544 54.1446 125.319C54.2342 125.095 54.2789 124.825 54.2789 124.556C54.2789 124.197 54.1894 123.883 54.055 123.658C53.9207 123.389 53.6968 123.21 53.4728 123.03C53.2489 122.851 52.9802 122.716 52.7115 122.626C52.4428 122.536 52.1293 122.402 51.8606 122.312C51.4127 122.132 51.0097 121.953 50.6514 121.728C50.2483 121.504 49.9349 121.28 49.6661 120.965C49.3974 120.651 49.1735 120.337 49.0392 119.933C48.9048 119.529 48.8152 119.08 48.8152 118.542C48.8152 117.958 48.9048 117.419 49.1287 116.926C49.3079 116.432 49.6214 115.983 49.9796 115.624C50.3379 115.265 50.7858 114.951 51.2336 114.726C51.7262 114.502 52.2636 114.412 52.8458 114.412C53.1593 114.412 53.4728 114.457 53.8311 114.502C54.1894 114.592 54.5477 114.681 54.8611 114.816C55.2194 114.951 55.5329 115.13 55.8464 115.31C56.1599 115.489 56.3838 115.714 56.6077 115.938L55.309 117.823Z" fill="black"/>
<path d="M66.5048 117.823C66.2361 117.464 65.9674 117.195 65.6091 116.971C65.2508 116.791 64.8925 116.656 64.4447 116.656C64.2208 116.656 63.9969 116.701 63.8177 116.791C63.5938 116.881 63.4147 116.971 63.2803 117.105C63.146 117.24 63.0116 117.419 62.922 117.599C62.8325 117.778 62.7877 118.003 62.7877 118.227C62.7877 118.631 62.922 118.946 63.1907 119.17C63.4594 119.394 63.8177 119.619 64.2208 119.798C64.6238 119.978 65.0717 120.157 65.5195 120.382C65.9674 120.561 66.4152 120.831 66.8183 121.145C67.2213 121.459 67.5796 121.863 67.8483 122.357C68.117 122.851 68.2514 123.479 68.2514 124.242C68.2514 124.96 68.1618 125.589 67.9379 126.172C67.714 126.756 67.4453 127.249 67.0422 127.653C66.6391 128.057 66.1913 128.416 65.6091 128.641C65.0269 128.865 64.3999 129 63.6834 129C62.7429 129 61.892 128.73 61.2202 128.237C60.5037 127.743 59.9215 127.07 59.4736 126.262L61.2202 124.556C61.3098 124.825 61.4441 125.095 61.5785 125.319C61.7576 125.544 61.9368 125.768 62.1607 125.948C62.3846 126.127 62.6085 126.262 62.8772 126.396C63.146 126.486 63.4147 126.576 63.6834 126.576C63.9521 126.576 64.176 126.531 64.3999 126.396C64.6238 126.307 64.803 126.127 64.9821 125.948C65.1613 125.768 65.2508 125.544 65.3404 125.319C65.43 125.095 65.4747 124.825 65.4747 124.556C65.4747 124.197 65.3852 123.883 65.2508 123.658C65.1165 123.389 64.8925 123.21 64.6686 123.03C64.4447 122.851 64.176 122.716 63.9073 122.626C63.6386 122.536 63.3251 122.402 63.0564 122.312C62.6085 122.132 62.2055 121.953 61.8472 121.728C61.4889 121.504 61.1307 121.28 60.8619 120.965C60.5932 120.651 60.3693 120.337 60.235 119.933C60.1006 119.529 60.011 119.08 60.011 118.542C60.011 117.958 60.1006 117.419 60.3245 116.926C60.5485 116.432 60.8172 115.983 61.1754 115.624C61.5337 115.265 61.9816 114.951 62.4294 114.726C62.922 114.502 63.4594 114.412 64.0416 114.412C64.3551 114.412 64.6686 114.457 65.0269 114.502C65.3852 114.592 65.7434 114.681 66.0569 114.816C66.4152 114.951 66.7287 115.13 67.0422 115.31C67.3557 115.489 67.6244 115.714 67.8035 115.938L66.5048 117.823Z" fill="black"/>
<path d="M77.3873 129C76.3573 129 75.4616 128.82 74.6107 128.416C73.7598 128.012 73.0432 127.519 72.461 126.845C71.8788 126.172 71.3862 125.409 71.0727 124.511C70.7144 123.614 70.5801 122.671 70.5801 121.684C70.5801 120.696 70.7592 119.798 71.0727 118.901C71.431 118.003 71.8788 117.24 72.461 116.567C73.0432 115.893 73.7598 115.355 74.6107 114.996C75.4616 114.592 76.3573 114.412 77.3873 114.412C78.3726 114.412 79.313 114.592 80.1639 114.996C81.0148 115.4 81.7314 115.893 82.3136 116.567C82.8958 117.24 83.3884 118.003 83.7019 118.901C84.0154 119.798 84.1945 120.696 84.1945 121.684C84.1945 122.671 84.0154 123.614 83.7019 124.511C83.3436 125.409 82.8958 126.172 82.3136 126.845C81.7314 127.519 81.0148 128.012 80.1639 128.416C79.313 128.82 78.4173 129 77.3873 129ZM77.3873 117.06C76.8051 117.06 76.2677 117.195 75.7751 117.464C75.2824 117.734 74.8346 118.048 74.4763 118.497C74.118 118.901 73.8493 119.394 73.6254 119.933C73.4015 120.472 73.3119 121.01 73.3119 121.594C73.3119 122.132 73.4015 122.671 73.6254 123.21C73.8493 123.748 74.118 124.287 74.4763 124.736C74.8346 125.185 75.2824 125.589 75.7751 125.903C76.2677 126.217 76.8051 126.352 77.3873 126.352C77.9695 126.352 78.5069 126.217 78.9995 125.903C79.4922 125.589 79.94 125.229 80.2983 124.736C80.6566 124.287 80.9253 123.748 81.1492 123.21C81.3731 122.671 81.4627 122.132 81.4627 121.594C81.4627 121.055 81.3731 120.472 81.1492 119.933C80.9253 119.394 80.6566 118.901 80.2983 118.497C79.94 118.093 79.4922 117.734 78.9995 117.464C78.5517 117.195 77.9695 117.06 77.3873 117.06Z" fill="black"/>
<path d="M95.8836 118.452C95.5253 118.003 95.0327 117.644 94.5401 117.375C94.0027 117.106 93.4652 116.971 92.883 116.971C92.2561 116.971 91.6739 117.106 91.1812 117.375C90.6886 117.644 90.2408 118.003 89.9273 118.452C89.569 118.901 89.3003 119.395 89.1212 119.978C88.942 120.562 88.8525 121.145 88.8525 121.729C88.8525 122.312 88.942 122.896 89.1212 123.434C89.3003 123.973 89.569 124.467 89.9273 124.916C90.2856 125.364 90.6886 125.724 91.1812 125.948C91.6739 126.217 92.2561 126.352 92.883 126.352C93.4652 126.352 94.0474 126.217 94.5849 125.948C95.1223 125.679 95.5701 125.32 95.9732 124.871V128.102C95.4806 128.327 94.9431 128.551 94.4505 128.686C93.9579 128.821 93.4205 128.91 92.8383 128.91C91.853 128.91 90.9573 128.731 90.1512 128.327C89.3451 127.923 88.6285 127.429 88.0016 126.756C87.4194 126.083 86.9267 125.32 86.6132 124.467C86.255 123.614 86.1206 122.671 86.1206 121.729C86.1206 120.741 86.2997 119.799 86.6132 118.901C86.9267 118.003 87.4194 117.24 88.0016 116.522C88.5837 115.849 89.3003 115.31 90.1512 114.906C91.0021 114.502 91.8978 114.278 92.9278 114.278C93.4653 114.278 94.0027 114.368 94.5401 114.502C95.0775 114.637 95.5701 114.861 96.018 115.086V118.452H95.8836Z" fill="black"/>
<path d="M101.929 114.771H99.2422V128.596H101.929V114.771Z" fill="black"/>
<path d="M108.065 125.723L106.945 128.641H104.124L109.498 114.412H111.603L116.843 128.641H113.977L112.902 125.723H108.065ZM110.394 118.497L108.826 123.524H112.096L110.394 118.497Z" fill="black"/>
<path d="M122.485 128.641H119.798V117.15H117.021V114.771H125.262V117.15H122.485V128.641Z" fill="black"/>
<path d="M130.546 114.771H127.859V128.596H130.546V114.771Z" fill="black"/>
<path d="M140.041 129C139.011 129 138.115 128.82 137.264 128.416C136.414 128.012 135.697 127.519 135.115 126.845C134.533 126.172 134.04 125.409 133.727 124.511C133.368 123.614 133.234 122.671 133.234 121.684C133.234 120.696 133.413 119.798 133.727 118.901C134.04 118.003 134.533 117.24 135.115 116.567C135.697 115.893 136.414 115.355 137.264 114.996C138.115 114.592 139.011 114.412 140.041 114.412C141.026 114.412 141.967 114.592 142.818 114.996C143.669 115.4 144.385 115.893 144.967 116.567C145.55 117.24 146.042 118.003 146.356 118.901C146.714 119.798 146.848 120.696 146.848 121.684C146.848 122.671 146.669 123.614 146.356 124.511C146.042 125.409 145.55 126.172 144.967 126.845C144.385 127.519 143.669 128.012 142.818 128.416C141.967 128.82 141.026 129 140.041 129ZM140.041 117.06C139.459 117.06 138.922 117.195 138.429 117.464C137.936 117.734 137.488 118.048 137.13 118.497C136.772 118.901 136.503 119.394 136.279 119.933C136.1 120.472 135.966 121.01 135.966 121.594C135.966 122.132 136.055 122.671 136.279 123.21C136.503 123.748 136.772 124.287 137.13 124.736C137.488 125.185 137.936 125.589 138.429 125.903C138.922 126.217 139.459 126.352 140.041 126.352C140.623 126.352 141.161 126.217 141.653 125.903C142.146 125.589 142.594 125.229 142.952 124.736C143.31 124.287 143.579 123.748 143.803 123.21C144.027 122.671 144.117 122.132 144.117 121.594C144.117 121.055 144.027 120.472 143.803 119.933C143.624 119.394 143.31 118.901 142.952 118.497C142.594 118.093 142.191 117.734 141.653 117.464C141.161 117.195 140.623 117.06 140.041 117.06Z" fill="black"/>
<path d="M149.042 114.412H151.013L158.268 124.107H158.313V114.771H161V128.91H159.074L151.774 119.215H151.73V128.641H149.042V114.412Z" fill="black"/>
<path d="M20.7798 73.567V22.5774L31.7968 11.4908L46.0382 25.7643L70.8936 0.853027L81.8209 12.0294V49.1046L66.5942 64.3207V27.425L48.2774 45.6933L35.1108 32.542L35.1556 58.7998L20.7798 73.567Z" fill="#939598"/>
<path d="M15.0028 28.188V79.2673L0 94.259V43.4489L15.0028 28.188Z" fill="#939598"/>
<path d="M61.2204 40.8906L61.2652 58.8447L52.2188 49.8677L61.2204 40.8906Z" fill="#CE2A37"/>
<path d="M5.82213 31.7339L5.77734 13.7798L14.8238 22.7568L5.82213 31.7339Z" fill="#05A062"/>
<path d="M80.4774 5.74527C80.3878 5.6555 80.3431 5.52084 80.3431 5.38618V1.25675H79.1787C79.0443 1.25675 78.91 1.21186 78.8204 1.12209C78.7308 1.03232 78.686 0.897667 78.686 0.763011V0.4937C78.686 0.359045 78.7308 0.224389 78.8204 0.134619C78.91 0.0448485 79.0443 -3.67016e-05 79.1787 -3.67016e-05H82.7614C82.8958 -3.67016e-05 83.0301 0.0448485 83.1197 0.134619C83.2093 0.224389 83.2541 0.359045 83.2541 0.4937V0.763011C83.2541 0.897667 83.2093 1.03232 83.1197 1.12209C83.0301 1.21186 82.8958 1.25675 82.7614 1.25675H81.597V5.38618C81.597 5.52084 81.5522 5.6555 81.4627 5.74527C81.3731 5.83504 81.2388 5.87992 81.1044 5.87992H80.7909C80.7013 5.87992 80.567 5.83504 80.4774 5.74527ZM84.0602 5.74527C83.9706 5.6555 83.9258 5.52084 83.9258 5.38618V0.448815C83.9258 0.31416 83.9706 0.179504 84.0602 0.0897336C84.1497 -3.66978e-05 84.2841 -0.0449219 84.4185 -0.0449219H84.7319C85.0006 -0.0449219 85.2246 0.134619 85.4037 0.448815L86.792 2.64819L88.1803 0.448815C88.4043 0.134619 88.6282 -0.0449219 88.8521 -0.0449219H89.1656C89.3 -0.0449219 89.4343 -3.66978e-05 89.5239 0.0897336C89.6134 0.179504 89.6582 0.31416 89.6582 0.448815V5.38618C89.6582 5.52084 89.6134 5.6555 89.5239 5.74527C89.4343 5.83504 89.3 5.87992 89.1656 5.87992H88.8521C88.7178 5.87992 88.5834 5.83504 88.4938 5.74527C88.4043 5.6555 88.3595 5.52084 88.3595 5.38618V2.55842L87.4638 4.03963C87.3742 4.21917 87.2847 4.30894 87.1951 4.39871C87.1055 4.4436 87.016 4.48848 86.8816 4.48848H86.7025C86.5681 4.48848 86.4785 4.4436 86.389 4.39871C86.2994 4.35383 86.2098 4.21917 86.1203 4.03963L85.2246 2.55842V5.38618C85.2246 5.52084 85.1798 5.6555 85.0902 5.74527C85.0006 5.83504 84.8663 5.87992 84.7319 5.87992H84.4185C84.2393 5.87992 84.1497 5.83504 84.0602 5.74527Z" fill="black"/>
</g>
<defs>
<clipPath id="clip0_146_144">
<rect width="161" height="129" fill="white"/>
</clipPath>
</defs>
</svg>
