<svg width="74" height="74" viewBox="0 0 74 74" fill="none" xmlns="http://www.w3.org/2000/svg">
<path d="M40.461 45.6207L40.0146 46.0671C40.1547 46.5674 40.2259 47.0811 40.2259 47.6019C40.2259 47.9638 40.1898 48.3191 40.1264 48.6676L45.9512 54.4924C46.1846 54.7259 46.491 54.842 46.7967 54.842C47.103 54.842 47.4088 54.7259 47.6422 54.4924C48.1092 54.026 48.1092 53.2683 47.6422 52.8019L40.461 45.6207Z" fill="black" stroke="black"/>
<path d="M45.1993 36.1158L43.5088 37.8064L53.0815 47.379C53.315 47.6125 53.6213 47.7287 53.927 47.7287C54.2333 47.7287 54.5391 47.6125 54.7725 47.379C55.2395 46.9126 55.2395 46.1549 54.7725 45.6885L45.1993 36.1158Z" fill="black" stroke="black"/>
<path d="M25.3284 33.8673C25.6791 33.8028 26.0366 33.7661 26.4001 33.7661C26.9144 33.7661 27.4263 33.8384 27.9328 33.9835L28.3776 33.5365L21.197 26.356C20.73 25.889 19.9734 25.889 19.5065 26.356C19.0395 26.8223 19.0395 27.5795 19.5065 28.0465L25.3284 33.8673Z" fill="black" stroke="black"/>
<path d="M36.1893 30.4874L37.8799 28.7969L28.3083 19.2253C27.8414 18.7584 27.0848 18.7584 26.6178 19.2253C26.1508 19.6917 26.1508 20.4494 26.6178 20.9158L36.1893 30.4874Z" fill="black" stroke="black"/>
<path d="M68.2163 3.67789L70.3154 5.77697L65.305 14.8149L62.247 14.5981L61.1586 14.5208L36.8775 38.8019L38.1049 40.4579C38.2506 40.6542 38.4235 40.9727 38.4235 41.3774C38.4235 41.7927 38.2617 42.1823 37.9682 42.4764L35.2298 45.2148L36.0259 46.7647C36.1677 47.041 36.2405 47.3228 36.2405 47.6013C36.2405 48.1055 36.0526 48.5602 35.6968 48.9155L14.5537 70.0657C14.1984 70.4209 13.7415 70.6083 13.2317 70.6083C12.7275 70.6083 12.2728 70.4204 11.9181 70.0663L3.92538 62.0641C3.57572 61.7178 3.3906 61.2658 3.3906 60.7583C3.3906 60.2541 3.5785 59.7994 3.93427 59.4442L25.0689 38.3024C25.433 37.9417 25.8927 37.751 26.3991 37.751C26.6632 37.751 26.9484 37.8277 27.2469 37.9789L28.7968 38.765L30.0226 37.5331L31.5163 36.0316C31.8142 35.7336 32.1939 35.5763 32.6153 35.5763C32.9444 35.5763 33.249 35.6797 33.5209 35.8848L35.1808 37.1345L36.6494 35.6647L58.7005 13.6051L59.4693 12.8363L59.3943 11.7506L59.1841 8.69589L68.2153 3.67772L68.2163 3.67789ZM68.4266 1C68.2287 1 68.0296 1.04836 67.8473 1.14732L57.3597 6.97324C56.9533 7.19616 56.7143 7.63476 56.746 8.09672L57.0089 11.9141L34.9579 33.9737C34.2802 33.4634 33.4758 33.1848 32.6147 33.1848C31.563 33.1848 30.5745 33.5912 29.8251 34.3406L28.327 35.8471C27.7294 35.5441 27.0757 35.3612 26.3986 35.3612C25.259 35.3612 24.191 35.8076 23.3861 36.6042L2.243 57.7545C1.43806 58.5594 1 59.6273 1 60.7591C1 61.8987 1.43805 62.9666 2.243 63.7637L10.2285 71.757C11.0334 72.5619 12.1013 73 13.2331 73C14.3727 73 15.4406 72.5619 16.2455 71.757L37.3887 50.6067C38.1936 49.8018 38.6317 48.7418 38.6317 47.6021C38.6317 46.9167 38.4566 46.2635 38.1536 45.6737L39.6601 44.1672C40.4011 43.4262 40.8158 42.43 40.8158 41.3776C40.8158 40.5248 40.529 39.7121 40.027 39.0345L62.0781 16.9834L65.8954 17.2541H65.9833C66.4135 17.2541 66.8121 17.0228 67.0272 16.6404L72.8448 6.14438C73.1077 5.68243 73.0199 5.1004 72.6457 4.72571L69.2747 1.35465C69.0445 1.12062 68.7377 1.00054 68.4269 1.00054L68.4266 1Z" fill="#05A062" stroke="#05A062"/>
<path d="M15.4611 29.3503C17.2555 29.3503 19.0678 29.0085 20.8016 28.3041C21.4136 28.0556 21.7077 27.358 21.4592 26.7471C21.2107 26.135 20.5142 25.841 19.9022 26.0895C15.5078 27.8739 10.5013 26.8611 7.14869 23.5089C4.49033 20.8506 3.30189 17.1667 3.82716 13.5344L7.79123 17.4984C8.75794 18.4651 10.0414 18.9977 11.4079 18.9982H11.4101C12.7743 18.9982 14.0574 18.4668 15.0218 17.5023L17.773 14.7511C18.738 13.7861 19.2695 12.5019 19.269 11.1361C19.2684 9.77083 18.7348 8.48617 17.7686 7.52059L13.8028 3.55481C17.4329 3.02726 21.1173 4.21688 23.7791 6.87805C27.1301 10.229 28.1429 15.2316 26.3596 19.6237C26.1111 20.2358 26.4058 20.9328 27.0172 21.1807C27.1646 21.2408 27.3169 21.2691 27.467 21.2691C27.9389 21.2691 28.3864 20.9873 28.5749 20.5231C30.7212 15.2392 29.5016 9.2199 25.4702 5.18767C21.6774 1.39423 16.1588 0.0744358 11.067 1.74389C11.0486 1.75 11.0325 1.76001 11.0153 1.76723C10.9969 1.77446 10.9802 1.78335 10.9619 1.79114C10.8268 1.85006 10.709 1.92844 10.6089 2.02406C10.6033 2.02906 10.5967 2.03017 10.5911 2.03518C10.5839 2.0424 10.5822 2.0513 10.5761 2.05852C10.4783 2.16136 10.3993 2.27922 10.3432 2.40929C10.3354 2.42708 10.3298 2.44376 10.3226 2.4621C10.2754 2.58718 10.2487 2.71948 10.2459 2.85568C10.2453 2.87458 10.2459 2.89236 10.2464 2.91071C10.2498 3.02467 10.2631 3.13919 10.2998 3.25314C10.3059 3.27148 10.3159 3.2876 10.3232 3.30484C10.3304 3.32318 10.3393 3.33986 10.3471 3.3582C10.4054 3.49051 10.4833 3.60836 10.5789 3.70731C10.5839 3.71287 10.585 3.72009 10.5911 3.7251L16.0762 9.21132C16.5921 9.72609 16.8756 10.411 16.8761 11.1375C16.8761 11.8635 16.5943 12.5467 16.0801 13.0598L13.3284 15.811C12.8153 16.3241 12.1332 16.6071 11.4077 16.6071H11.4072C10.6795 16.6071 9.99573 16.3224 9.48042 15.8077L3.99533 10.3226C3.98977 10.317 3.98255 10.3153 3.97699 10.3103C3.87748 10.2147 3.76019 10.1363 3.629 10.0791C3.61065 10.0713 3.59286 10.0624 3.57396 10.0552C3.55562 10.048 3.53949 10.0374 3.52115 10.0318C3.40775 9.99515 3.29378 9.98181 3.18094 9.97847C3.16204 9.97791 3.1437 9.9768 3.12369 9.97791C2.98805 9.98125 2.85685 10.0074 2.73233 10.0546C2.71343 10.0619 2.69564 10.068 2.67674 10.0763C2.54833 10.1319 2.43214 10.2092 2.3293 10.3065C2.32208 10.3137 2.31151 10.3153 2.30484 10.3231C2.29928 10.3281 2.29762 10.3359 2.29206 10.3415C2.19644 10.4404 2.11918 10.5577 2.06191 10.6889C2.05413 10.7078 2.04412 10.7256 2.03745 10.7445C2.03022 10.7628 2.01966 10.779 2.0141 10.7973C0.350347 15.8922 1.67 21.4111 5.45788 25.1992C8.16962 27.9115 11.7796 29.3507 15.4619 29.3507L15.4611 29.3503Z" fill="black" stroke="black"/>
<path d="M53.472 45.4229C52.8599 45.6714 52.5658 46.3691 52.8143 46.9799C53.0623 47.5914 53.7588 47.8861 54.3714 47.6376C58.7635 45.8554 63.7667 46.8688 67.117 50.2187C69.7786 52.8803 70.9678 56.5649 70.4402 60.195L66.4745 56.2292C64.4804 54.2351 61.2367 54.233 59.2438 56.2253L56.4926 58.9764C54.5003 60.9688 54.502 64.2125 56.4965 66.2071L60.4606 70.1712C56.8288 70.6965 53.1455 69.5074 50.486 66.8496C47.1333 63.4969 46.1205 58.4912 47.9049 54.0962C48.1534 53.4841 47.8588 52.787 47.2473 52.5391C46.6336 52.2907 45.9382 52.5853 45.6903 53.1968C43.5434 58.4839 44.7619 64.5072 48.7961 68.5407C51.5011 71.2464 55.0889 72.6928 58.7745 72.6928C60.2504 72.6928 61.7414 72.461 63.1984 71.9851C63.2173 71.979 63.2334 71.9685 63.2517 71.9618C63.2701 71.9546 63.2867 71.9457 63.3051 71.9379C63.4374 71.8795 63.5553 71.8022 63.6542 71.7061C63.6598 71.7011 63.667 71.7 63.672 71.6938C63.6792 71.6866 63.6809 71.6772 63.6881 71.6705C63.7859 71.5677 63.8643 71.4498 63.9199 71.3208C63.9277 71.303 63.9344 71.2858 63.9405 71.268C63.9877 71.1429 64.0139 71.0112 64.0172 70.8745C64.0178 70.8556 64.0172 70.8378 64.0166 70.8189C64.0133 70.7055 64.0005 70.5909 63.9633 70.4775C63.9572 70.4586 63.9466 70.4425 63.9399 70.4242C63.9327 70.4058 63.9238 70.388 63.916 70.3702C63.8577 70.2374 63.7798 70.1201 63.6831 70.0206C63.6781 70.0156 63.677 70.0084 63.672 70.0039L58.1869 64.5188C57.1246 63.4565 57.1229 61.7292 58.183 60.6686L60.9342 57.9174C61.9959 56.8568 63.722 56.8601 64.7844 57.9213L70.2695 63.4064C70.2745 63.4114 70.2817 63.4125 70.2873 63.4175C70.3868 63.5137 70.5046 63.5921 70.6369 63.6505C70.6553 63.6583 70.6719 63.6671 70.6903 63.6744C70.7086 63.6816 70.7236 63.6911 70.742 63.6977C70.8654 63.7383 70.9916 63.7578 71.115 63.7578C71.2579 63.7578 71.3957 63.7261 71.5264 63.6772C71.5653 63.6627 71.5986 63.6405 71.6364 63.6216C71.7315 63.5743 71.8171 63.5187 71.8971 63.4487C71.916 63.432 71.9411 63.4253 71.9594 63.407C71.9761 63.3903 71.9816 63.3681 71.9966 63.3503C72.065 63.2736 72.1201 63.188 72.1679 63.0929C72.1884 63.0523 72.214 63.0162 72.229 62.9739C72.2346 62.9595 72.2451 62.9484 72.2496 62.9339C73.9185 57.8413 72.5987 52.3229 68.8058 48.5306C64.7756 44.4964 58.7562 43.2785 53.4718 45.4243L53.472 45.4229Z" fill="black" stroke="black"/>
</svg>
