<svg width="61" height="73" viewBox="0 0 61 73" fill="none" xmlns="http://www.w3.org/2000/svg">
<path d="M30.464 0C25.017 0 20.5437 4.41681 20.5437 9.84394C20.5437 15.2705 25.017 19.6879 30.464 19.6879C35.911 19.6879 40.3844 15.2705 40.3844 9.84394C40.3844 4.41681 35.911 0 30.464 0ZM30.464 3.2725C34.155 3.2725 37.1119 6.19799 37.1119 9.84394C37.1119 13.4892 34.155 16.4148 30.464 16.4148C26.7731 16.4148 23.8162 13.4893 23.8162 9.84394C23.8162 6.19814 26.7731 3.2725 30.464 3.2725ZM11.3635 8.20696C7.32276 8.20696 4 11.4887 4 15.5197C4 19.5508 7.32276 22.8583 11.3635 22.8583C15.4048 22.8583 18.7276 19.5508 18.7276 15.5197C18.7276 11.4887 15.4048 8.20696 11.3635 8.20696ZM49.5631 8.20696C45.5218 8.20696 42.199 11.4887 42.199 15.5197C42.199 19.5508 45.5218 22.8583 49.5631 22.8583C53.6038 22.8583 56.9266 19.5508 56.9266 15.5197C56.9266 11.4887 53.6038 8.20696 49.5631 8.20696ZM11.3635 11.48C13.6487 11.48 15.4545 13.2699 15.4545 15.5196C15.4545 17.7694 13.6487 19.5849 11.3635 19.5849C9.07882 19.5849 7.2725 17.7694 7.2725 15.5196C7.2725 13.2699 9.07882 11.48 11.3635 11.48ZM49.5631 11.48C51.8478 11.48 53.6541 13.2699 53.6541 15.5196C53.6541 17.7694 51.8478 19.5849 49.5631 19.5849C47.2778 19.5849 45.4721 17.7694 45.4721 15.5196C45.4721 13.2699 47.2778 11.48 49.5631 11.48Z" fill="#05A062"/>
<path d="M30.2732 22C25.8198 22 21.8259 23.9524 19.0744 27.011C17.0711 25.4604 14.5541 24.5312 11.8124 24.5312C5.30104 24.5312 0 29.7676 0 36.2413V37.5197C0 38.4238 0.732814 39.156 1.63625 39.156H6.1622L8.87204 60.1735C8.97477 60.9867 9.66308 61.5986 10.4832 61.6054H16.6961C17.1344 61.6117 17.5561 61.4416 17.8683 61.1346C18.1805 60.8269 18.3557 60.4069 18.3557 59.9691C18.3557 59.5308 18.1805 59.1113 17.8683 58.8037C17.5561 58.4961 17.1344 58.3266 16.6961 58.3323H11.9401L9.23029 37.3148C9.12642 36.4918 8.42329 35.8766 7.59346 35.8828H3.3495C3.54698 31.3622 7.17223 27.803 11.8123 27.803C13.8527 27.803 15.6745 28.5084 17.1309 29.6698C15.9392 31.798 15.2641 34.247 15.2641 36.8542V40.0502C15.2646 40.9543 15.9969 41.6865 16.9009 41.6871H19.0742L22.9095 71.0911C23.0117 71.9044 23.7006 72.5162 24.5201 72.5225H36.026C36.8456 72.5162 37.5344 71.9044 37.6365 71.0911L41.4718 41.6871H43.6452C44.5492 41.6865 45.2814 40.9543 45.282 40.0502V36.8542C45.282 34.247 44.6068 31.7981 43.4152 29.6698C44.8717 28.5084 46.6935 27.803 48.7338 27.803C53.3738 27.803 56.999 31.362 57.1966 35.8828H52.9526C52.1227 35.8766 51.4196 36.4918 51.3158 37.3148L48.6059 58.3323H43.85C43.4117 58.3266 42.9899 58.4961 42.6777 58.8037C42.3655 59.1113 42.1903 59.5308 42.1903 59.9691C42.1903 60.4069 42.3655 60.8269 42.6777 61.1346C42.9899 61.4416 43.4117 61.6117 43.85 61.6054H50.0629C50.883 61.5986 51.5713 60.9867 51.674 60.1735L54.3838 39.156H58.9098C59.8133 39.156 60.546 38.4238 60.546 37.5197V36.2413C60.546 29.7675 55.2451 24.5312 48.7336 24.5312C45.9918 24.5312 43.4749 25.4603 41.4717 27.011C38.7202 23.9524 34.7265 22 30.2732 22ZM30.2732 25.2725C36.8069 25.2725 42.009 30.4182 42.009 36.8548V38.4147H40.015C39.1948 38.4215 38.5066 39.0333 38.4039 39.8466L34.5686 69.2506H25.9779L22.1426 39.8466C22.0399 39.0333 21.3516 38.4215 20.5315 38.4147H18.5374V36.8548C18.5374 30.4181 23.7394 25.2725 30.2732 25.2725Z" fill="black"/>
</svg>
