<svg width="30" height="30" viewBox="0 0 30 30" fill="none" xmlns="http://www.w3.org/2000/svg">
<circle cx="15" cy="15" r="15" fill="#CE2A37"/>
<path d="M18.9993 15.319C18.9943 15.1022 18.909 14.8951 18.76 14.7377L13.5084 9.26734C13.2908 9.04251 12.9699 8.95047 12.6662 9.02588C12.3624 9.10143 12.1219 9.33282 12.0347 9.63352C11.9476 9.93406 12.0271 10.2582 12.2435 10.4844L16.9137 15.3465L12.2435 20.2085C12.0271 20.4347 11.9476 20.7589 12.0347 21.0594C12.1219 21.3601 12.3624 21.5915 12.6662 21.667C12.9699 21.7424 13.2907 21.6504 13.5084 21.4256L18.76 15.9552C18.9223 15.7841 19.0085 15.5548 18.9993 15.3193L18.9993 15.319Z" fill="white"/>
</svg>
