<svg width="9" height="17" viewBox="0 0 9 17" fill="none" xmlns="http://www.w3.org/2000/svg">
<path d="M0.000850603 8.1244C0.00732684 7.84573 0.117027 7.57942 0.308561 7.37711L7.0606 0.343728C7.34045 0.054661 7.75294 -0.0636758 8.14349 0.0332693C8.53402 0.13041 8.84331 0.427917 8.95535 0.814527C9.0674 1.20093 8.96516 1.61774 8.68688 1.90857L2.68239 8.15973L8.68688 14.4109C8.96516 14.7017 9.0674 15.1186 8.95535 15.5049C8.84329 15.8915 8.53401 16.189 8.14349 16.2862C7.75297 16.3831 7.34048 16.2648 7.0606 15.9757L0.308561 8.94236C0.0999559 8.72238 -0.0109253 8.42719 0.000850603 8.1244Z" fill="#CE2A37"/>
</svg>
