<svg width="75" height="60" viewBox="0 0 75 60" fill="none" xmlns="http://www.w3.org/2000/svg">
<g clip-path="url(#clip0_146_64)">
<path d="M36.3005 45.0522C36.1128 44.8226 35.8833 44.6347 35.6121 44.5094C35.3409 44.3841 35.0697 44.3215 34.7567 44.3215C34.4229 44.3215 34.1309 44.3841 33.8805 44.5303C33.6302 44.6764 33.4215 44.8434 33.2338 45.0731C33.0669 45.3027 32.9208 45.5532 32.8374 45.8455C32.754 46.1378 32.6914 46.4301 32.6914 46.7223C32.6914 47.0146 32.7331 47.3069 32.8374 47.5783C32.9417 47.8497 33.0669 48.1002 33.2546 48.3299C33.4215 48.5386 33.651 48.7265 33.9014 48.8518C34.1517 48.9979 34.4438 49.0605 34.7567 49.0605C35.0488 49.0605 35.3409 48.9979 35.6121 48.8518C35.8833 48.7056 36.1128 48.5386 36.3005 48.3299V49.9582C36.0502 50.0835 35.779 50.1879 35.5286 50.2505C35.2783 50.334 35.0071 50.3758 34.715 50.3758C34.2143 50.3758 33.7762 50.2714 33.359 50.0835C32.9417 49.8956 32.5871 49.6242 32.2741 49.2902C31.982 48.9562 31.7317 48.5804 31.5648 48.142C31.3979 47.7036 31.3145 47.2443 31.3145 46.7641C31.3145 46.2631 31.3979 45.8038 31.5648 45.3445C31.7317 44.8852 31.9612 44.4885 32.2741 44.1545C32.5871 43.8205 32.9417 43.5491 33.359 43.3403C33.7762 43.1315 34.256 43.0271 34.7567 43.0271C35.0279 43.0271 35.2992 43.0689 35.5704 43.1315C35.8416 43.1942 36.0711 43.2985 36.3214 43.4238V45.0522H36.3005Z" fill="black"/>
<path d="M17.733 33.5699H16.377V40.5428H17.733V33.5699Z" fill="black"/>
<path d="M21.9052 40.5637H20.5491V34.7599H19.1514V33.5699H23.3238V34.7599H21.9052V40.5637Z" fill="black"/>
<path d="M25.431 39.0814L24.8677 40.5428H23.4282L26.1403 33.382H27.2043L29.8538 40.5428H28.3935L27.851 39.0814H25.431ZM26.5993 35.428L25.8065 37.9749H27.4547L26.5993 35.428Z" fill="black"/>
<path d="M32.3155 39.3737H34.2349V40.5637H30.9595V33.5699H32.3155V39.3737Z" fill="black"/>
<path d="M36.9474 33.5699H35.5913V40.5428H36.9474V33.5699Z" fill="black"/>
<path d="M39.972 39.0814L39.4087 40.5428H37.9692L40.6813 33.382H41.7453L44.3948 40.5428H42.9345L42.392 39.0814H39.972ZM41.1403 35.428L40.3475 37.9749H41.9957L41.1403 35.428Z" fill="black"/>
<path d="M45.5005 33.382H46.481L50.1528 38.2672H50.1737V33.5699H51.5297V40.6889H50.5492L46.8774 35.8246H46.8565V40.5637H45.5005V33.382Z" fill="black"/>
<path d="M21.5716 45.8664H21.5507L19.986 50.2923H19.5062L17.9833 45.8664H17.9624L17.3365 50.1879H15.9805L17.1488 43.0271H18.1084L19.8191 47.6201L21.4673 43.0271H22.4478L23.4909 50.1879H22.1349L21.5716 45.8664Z" fill="black"/>
<path d="M26.4535 48.7265L25.8902 50.1879H24.4507L27.1628 43.0271H28.2268L30.8763 50.1879H29.4159L28.8735 48.7265H26.4535ZM27.6218 45.0731L26.829 47.5992H28.4771L27.6218 45.0731Z" fill="black"/>
<path d="M41.6623 45.9499V43.215H43.0392V50.1879H41.6623V47.0773H39.1588V50.1879H37.8027V43.215H39.1588V45.9499H41.6623Z" fill="black"/>
<path d="M45.9806 43.215H44.6245V50.1879H45.9806V43.215Z" fill="black"/>
<path d="M47.5659 43.0271H48.5464L52.2182 47.9123H52.2391V43.215H53.5951V50.334H52.6146L48.9428 45.4489H48.922V50.1879H47.5659V43.0271Z" fill="black"/>
<path d="M56.5367 44.405V45.929H58.7064V47.119H56.5367V48.9979H58.7898V50.1879H55.1807V43.215H58.7898V44.405H56.5367Z" fill="black"/>
<path d="M65.0069 50.1879H63.3588L61.6689 47.3695H61.648V50.1879H60.292V43.215H62.1279C62.4825 43.215 62.7955 43.2568 63.0667 43.3403C63.3587 43.4238 63.5882 43.5491 63.7969 43.7161C64.0055 43.8831 64.1515 44.1127 64.2767 44.3633C64.381 44.6347 64.4436 44.9478 64.4436 45.3236C64.4436 45.5532 64.4227 45.762 64.3601 45.9708C64.2976 46.1795 64.2141 46.3883 64.0889 46.5553C63.9638 46.7432 63.8177 46.8894 63.6508 47.0146C63.4839 47.1399 63.2753 47.2234 63.0458 47.2443L65.0069 50.1879ZM61.648 46.4301H61.8149C62.0027 46.4301 62.1696 46.4092 62.3365 46.3883C62.5034 46.3466 62.6286 46.3048 62.7329 46.2213C62.8581 46.1378 62.9415 46.0334 63.0041 45.8873C63.0667 45.7411 63.0875 45.5741 63.0875 45.3654C63.0875 45.1566 63.0667 44.9687 62.9832 44.8434C62.9206 44.7182 62.8372 44.6138 62.712 44.5303C62.5868 44.4468 62.4617 44.405 62.3156 44.3841C62.1696 44.3633 62.0027 44.3424 61.8149 44.3424H61.6272V46.4301H61.648Z" fill="black"/>
<path d="M64.8818 43.215H66.4674L67.6774 45.6368L69.0126 43.215H70.5981L68.4076 46.9937V50.1879H67.0515V46.9937L64.8818 43.215Z" fill="black"/>
<path d="M17.6494 58.476L17.1278 59.833H15.8135L18.317 53.215H19.2975L21.7384 59.833H20.4032L19.9025 58.476H17.6494ZM18.7342 55.1148L18.004 57.453H19.527L18.7342 55.1148Z" fill="black"/>
<path d="M25.7651 54.8017C25.64 54.6347 25.5148 54.5094 25.3479 54.405C25.181 54.3215 25.0141 54.2589 24.8055 54.2589C24.7012 54.2589 24.5968 54.2798 24.5134 54.3215C24.4299 54.3633 24.3465 54.405 24.263 54.4677C24.2005 54.5303 24.1379 54.6138 24.0961 54.6973C24.0544 54.7808 24.0336 54.8852 24.0336 54.9896C24.0336 55.1775 24.0961 55.3236 24.2213 55.428C24.3465 55.5324 24.5134 55.6368 24.7012 55.7203C24.8889 55.8038 25.0975 55.8873 25.3062 55.9917C25.5356 56.0752 25.7234 56.2004 25.9112 56.3466C26.0989 56.4927 26.2658 56.6806 26.391 56.9102C26.5162 57.1399 26.5788 57.4322 26.5788 57.7871C26.5788 58.1211 26.537 58.4134 26.4327 58.6848C26.3284 58.9562 26.2032 59.1858 26.0155 59.3737C25.8277 59.5616 25.6191 59.7286 25.3479 59.833C25.0767 59.9374 24.7846 60 24.4508 60C24.0127 60 23.6163 59.8748 23.3034 59.6451C22.9696 59.4155 22.6984 59.1023 22.4897 58.7265L23.3034 57.9332C23.3451 58.0585 23.4077 58.1837 23.4703 58.2881C23.5537 58.3925 23.6372 58.4969 23.7415 58.5804C23.8458 58.6639 23.9501 58.7265 24.0753 58.7892C24.2005 58.8309 24.3256 58.8727 24.4508 58.8727C24.576 58.8727 24.6803 58.8518 24.7846 58.7892C24.8889 58.7474 24.9724 58.6639 25.0558 58.5804C25.1393 58.4969 25.181 58.3925 25.2227 58.2881C25.2644 58.1837 25.2853 58.0585 25.2853 57.9332C25.2853 57.7662 25.2436 57.6201 25.181 57.5157C25.1184 57.3904 25.0141 57.3069 24.9098 57.2234C24.8055 57.1399 24.6803 57.0773 24.5551 57.0355C24.4299 56.9937 24.2839 56.9311 24.1587 56.8894C23.9501 56.8059 23.7623 56.7224 23.5954 56.618C23.4077 56.5136 23.2617 56.4092 23.1365 56.2631C23.0113 56.1169 22.907 55.9708 22.8444 55.7829C22.7818 55.595 22.7401 55.3862 22.7401 55.1357C22.7401 54.8643 22.7818 54.6138 22.8861 54.3841C22.9696 54.1545 23.1156 53.9457 23.2825 53.7787C23.4494 53.6117 23.658 53.4656 23.8667 53.3612C24.0961 53.2568 24.3465 53.215 24.6177 53.215C24.7637 53.215 24.9098 53.2359 25.0767 53.2568C25.2436 53.2986 25.4105 53.3403 25.5565 53.4029C25.7234 53.4656 25.8694 53.5491 26.0155 53.6326C26.1615 53.7161 26.2658 53.8205 26.3701 53.9249L25.7651 54.8017Z" fill="black"/>
<path d="M30.9805 54.8017C30.8553 54.6347 30.7301 54.5094 30.5632 54.405C30.3963 54.3215 30.2294 54.2589 30.0208 54.2589C29.9165 54.2589 29.8122 54.2798 29.7287 54.3215C29.6244 54.3633 29.541 54.405 29.4784 54.4677C29.4158 54.5303 29.3532 54.6138 29.3115 54.6973C29.2698 54.7808 29.2489 54.8852 29.2489 54.9896C29.2489 55.1775 29.3115 55.3236 29.4367 55.428C29.5618 55.5324 29.7287 55.6368 29.9165 55.7203C30.1042 55.8038 30.3129 55.8873 30.5215 55.9917C30.7301 56.0752 30.9387 56.2004 31.1265 56.3466C31.3143 56.4927 31.4812 56.6806 31.6063 56.9102C31.7315 57.1399 31.7941 57.4322 31.7941 57.7871C31.7941 58.1211 31.7524 58.4134 31.6481 58.6848C31.5437 58.9562 31.4186 59.1858 31.2308 59.3737C31.043 59.5616 30.8344 59.7286 30.5632 59.833C30.292 59.9374 29.9999 60 29.6661 60C29.228 60 28.8316 59.8748 28.5187 59.6451C28.1849 59.4155 27.9137 59.1023 27.7051 58.7265L28.5187 57.9332C28.5604 58.0585 28.623 58.1837 28.6856 58.2881C28.7691 58.3925 28.8525 58.4969 28.9568 58.5804C29.0611 58.6639 29.1654 58.7265 29.2906 58.7892C29.4158 58.8309 29.541 58.8727 29.6661 58.8727C29.7913 58.8727 29.8956 58.8518 29.9999 58.7892C30.1042 58.7474 30.1877 58.6639 30.2711 58.5804C30.3546 58.4969 30.3963 58.3925 30.438 58.2881C30.4798 58.1837 30.5006 58.0585 30.5006 57.9332C30.5006 57.7662 30.4589 57.6201 30.3963 57.5157C30.3337 57.3904 30.2294 57.3069 30.1251 57.2234C30.0208 57.1399 29.8956 57.0773 29.7704 57.0355C29.6453 56.9937 29.4992 56.9311 29.3741 56.8894C29.1654 56.8059 28.9777 56.7224 28.8108 56.618C28.6439 56.5136 28.477 56.4092 28.3518 56.2631C28.2266 56.1169 28.1223 55.9708 28.0597 55.7829C27.9971 55.595 27.9554 55.3862 27.9554 55.1357C27.9554 54.8643 27.9971 54.6138 28.1015 54.3841C28.2058 54.1545 28.3309 53.9457 28.4978 53.7787C28.6647 53.6117 28.8734 53.4656 29.082 53.3612C29.3115 53.2568 29.5618 53.215 29.833 53.215C29.9791 53.215 30.1251 53.2359 30.292 53.2568C30.4589 53.2986 30.6258 53.3403 30.7718 53.4029C30.9387 53.4656 31.0848 53.5491 31.2308 53.6326C31.3768 53.7161 31.502 53.8205 31.5855 53.9249L30.9805 54.8017Z" fill="black"/>
<path d="M36.05 60C35.5701 60 35.1529 59.9165 34.7565 59.7286C34.3601 59.5407 34.0263 59.3111 33.7551 58.9979C33.4839 58.6848 33.2544 58.3299 33.1084 57.9123C32.9415 57.4948 32.8789 57.0564 32.8789 56.5971C32.8789 56.1378 32.9624 55.7203 33.1084 55.3027C33.2753 54.8852 33.4839 54.5303 33.7551 54.2171C34.0263 53.904 34.3601 53.6535 34.7565 53.4864C35.1529 53.2986 35.5701 53.215 36.05 53.215C36.5089 53.215 36.9471 53.2986 37.3434 53.4864C37.7398 53.6743 38.0736 53.904 38.3448 54.2171C38.616 54.5303 38.8455 54.8852 38.9916 55.3027C39.1376 55.7203 39.221 56.1378 39.221 56.5971C39.221 57.0564 39.1376 57.4948 38.9916 57.9123C38.8247 58.3299 38.616 58.6848 38.3448 58.9979C38.0736 59.3111 37.7398 59.5407 37.3434 59.7286C36.9471 59.9165 36.5298 60 36.05 60ZM36.05 54.4468C35.7788 54.4468 35.5284 54.5094 35.2989 54.6347C35.0694 54.7599 34.8608 54.9061 34.6939 55.1148C34.527 55.3027 34.4019 55.5324 34.2975 55.7829C34.1932 56.0334 34.1515 56.2839 34.1515 56.5553C34.1515 56.8059 34.1932 57.0564 34.2975 57.3069C34.4019 57.5574 34.527 57.8079 34.6939 58.0167C34.8608 58.2255 35.0694 58.4134 35.2989 58.5595C35.5284 58.7056 35.7788 58.7683 36.05 58.7683C36.3212 58.7683 36.5715 58.7056 36.801 58.5595C37.0305 58.4134 37.2391 58.2464 37.406 58.0167C37.5729 57.8079 37.6981 57.5574 37.8024 57.3069C37.9067 57.0564 37.9484 56.8059 37.9484 56.5553C37.9484 56.3048 37.9067 56.0334 37.8024 55.7829C37.6981 55.5324 37.5729 55.3027 37.406 55.1148C37.2391 54.9269 37.0305 54.7599 36.801 54.6347C36.5924 54.5094 36.3212 54.4468 36.05 54.4468Z" fill="black"/>
<path d="M44.6661 55.0939C44.4992 54.8852 44.2698 54.7182 44.0403 54.5929C43.7899 54.4676 43.5396 54.405 43.2684 54.405C42.9763 54.405 42.7051 54.4676 42.4756 54.5929C42.2461 54.7182 42.0375 54.8852 41.8915 55.0939C41.7246 55.3027 41.5994 55.5324 41.5159 55.8038C41.4325 56.0752 41.3908 56.3466 41.3908 56.618C41.3908 56.8894 41.4325 57.1608 41.5159 57.4113C41.5994 57.6618 41.7246 57.8914 41.8915 58.1002C42.0584 58.309 42.2461 58.476 42.4756 58.5804C42.7051 58.7056 42.9763 58.7683 43.2684 58.7683C43.5396 58.7683 43.8108 58.7056 44.0611 58.5804C44.3115 58.4551 44.5201 58.2881 44.7079 58.0793V59.5825C44.4784 59.6868 44.228 59.7912 43.9986 59.8539C43.7691 59.9165 43.5187 59.9583 43.2475 59.9583C42.7885 59.9583 42.3713 59.8747 41.9958 59.6868C41.6203 59.499 41.2865 59.2693 40.9944 58.9562C40.7232 58.643 40.4937 58.2881 40.3476 57.8914C40.1807 57.4948 40.1182 57.0564 40.1182 56.618C40.1182 56.1587 40.2016 55.7203 40.3476 55.3027C40.4937 54.8852 40.7232 54.5303 40.9944 54.1962C41.2656 53.8831 41.5994 53.6326 41.9958 53.4447C42.3922 53.2568 42.8094 53.1524 43.2892 53.1524C43.5396 53.1524 43.7899 53.1942 44.0403 53.2568C44.2906 53.3194 44.5201 53.4238 44.7287 53.5282V55.0939H44.6661Z" fill="black"/>
<path d="M47.4827 53.382H46.231V59.8121H47.4827V53.382Z" fill="black"/>
<path d="M50.3408 58.476L49.8192 59.833H48.5049L51.0084 53.215H51.9889L54.4298 59.833H53.0946L52.5939 58.476H50.3408ZM51.4256 55.1148L50.6954 57.453H52.2184L51.4256 55.1148Z" fill="black"/>
<path d="M57.0584 59.833H55.8066V54.4885H54.5132V53.382H58.3519V54.4885H57.0584V59.833Z" fill="black"/>
<path d="M60.8138 53.382H59.562V59.8121H60.8138V53.382Z" fill="black"/>
<path d="M65.2365 60C64.7567 60 64.3394 59.9165 63.943 59.7286C63.5467 59.5407 63.2129 59.3111 62.9416 58.9979C62.6704 58.6848 62.441 58.3299 62.2949 57.9123C62.128 57.4948 62.0654 57.0564 62.0654 56.5971C62.0654 56.1378 62.1489 55.7203 62.2949 55.3027C62.441 54.8852 62.6704 54.5303 62.9416 54.2171C63.2129 53.904 63.5467 53.6535 63.943 53.4864C64.3394 53.2986 64.7567 53.215 65.2365 53.215C65.6955 53.215 66.1336 53.2986 66.53 53.4864C66.9263 53.6743 67.2601 53.904 67.5314 54.2171C67.8026 54.5303 68.032 54.8852 68.1781 55.3027C68.345 55.7203 68.4076 56.1378 68.4076 56.5971C68.4076 57.0564 68.3241 57.4948 68.1781 57.9123C68.032 58.3299 67.8026 58.6848 67.5314 58.9979C67.2601 59.3111 66.9263 59.5407 66.53 59.7286C66.1336 59.9165 65.6955 60 65.2365 60ZM65.2365 54.4468C64.9653 54.4468 64.7149 54.5094 64.4855 54.6347C64.256 54.7599 64.0474 54.9061 63.8805 55.1148C63.7136 55.3027 63.5884 55.5324 63.4841 55.7829C63.4006 56.0334 63.338 56.2839 63.338 56.5553C63.338 56.8059 63.3798 57.0564 63.4841 57.3069C63.5884 57.5574 63.7136 57.8079 63.8805 58.0167C64.0474 58.2255 64.256 58.4134 64.4855 58.5595C64.7149 58.7056 64.9653 58.7683 65.2365 58.7683C65.5077 58.7683 65.7581 58.7056 65.9875 58.5595C66.217 58.4134 66.4257 58.2464 66.5926 58.0167C66.7595 57.8079 66.8846 57.5574 66.9889 57.3069C67.0932 57.0564 67.135 56.8059 67.135 56.5553C67.135 56.3048 67.0932 56.0334 66.9889 55.7829C66.9055 55.5324 66.7595 55.3027 66.5926 55.1148C66.4257 54.9269 66.2379 54.7599 65.9875 54.6347C65.7581 54.5094 65.5077 54.4468 65.2365 54.4468Z" fill="black"/>
<path d="M69.4297 53.215H70.3476L73.7273 57.7244H73.7482V53.3821H74.9999V59.9583H74.1029L70.7023 55.4489H70.6814V59.833H69.4297V53.215Z" fill="black"/>
<path d="M9.68018 34.2171V10.501L14.8123 5.34447L21.4465 11.9833L33.0251 0.396664L38.1155 5.59499V22.8393L31.0223 29.9165V12.7557L22.4896 21.2526L16.3561 15.1357L16.377 27.3486L9.68018 34.2171Z" fill="#939598"/>
<path d="M6.98887 13.1106V36.8685L0 43.8413V20.2088L6.98887 13.1106Z" fill="#939598"/>
<path d="M28.519 19.0188L28.5399 27.3695L24.3257 23.1942L28.519 19.0188Z" fill="#CE2A37"/>
<path d="M2.71227 14.7599L2.69141 6.40919L6.90559 10.5846L2.71227 14.7599Z" fill="#05A062"/>
<path d="M37.4898 2.67224C37.448 2.63048 37.4272 2.56785 37.4272 2.50522V0.584556H36.8848C36.8222 0.584556 36.7596 0.563679 36.7179 0.521925C36.6761 0.480172 36.6553 0.417541 36.6553 0.354911V0.22965C36.6553 0.167019 36.6761 0.104389 36.7179 0.0626352C36.7596 0.0208815 36.8222 4.70877e-06 36.8848 4.70877e-06H38.5537C38.6163 4.70877e-06 38.6789 0.0208815 38.7206 0.0626352C38.7624 0.104389 38.7832 0.167019 38.7832 0.22965V0.354911C38.7832 0.417541 38.7624 0.480172 38.7206 0.521925C38.6789 0.563679 38.6163 0.584556 38.5537 0.584556H38.0113V2.50522C38.0113 2.56785 37.9905 2.63048 37.9487 2.67224C37.907 2.71399 37.8444 2.73487 37.7818 2.73487H37.6358C37.5941 2.73487 37.5315 2.71399 37.4898 2.67224ZM39.1588 2.67224C39.117 2.63048 39.0962 2.56785 39.0962 2.50522V0.208773C39.0962 0.146142 39.117 0.083512 39.1588 0.0417584C39.2005 4.71063e-06 39.2631 -0.0208721 39.3257 -0.0208721H39.4717C39.5969 -0.0208721 39.7012 0.0626352 39.7846 0.208773L40.4314 1.23174L41.0781 0.208773C41.1824 0.0626352 41.2867 -0.0208721 41.391 -0.0208721H41.5371C41.5997 -0.0208721 41.6622 4.71063e-06 41.704 0.0417584C41.7457 0.083512 41.7665 0.146142 41.7665 0.208773V2.50522C41.7665 2.56785 41.7457 2.63048 41.704 2.67224C41.6622 2.71399 41.5997 2.73487 41.5371 2.73487H41.391C41.3284 2.73487 41.2659 2.71399 41.2241 2.67224C41.1824 2.63048 41.1615 2.56785 41.1615 2.50522V1.18998L40.7443 1.87892C40.7026 1.96243 40.6608 2.00418 40.6191 2.04593C40.5774 2.06681 40.5357 2.08769 40.4731 2.08769H40.3896C40.327 2.08769 40.2853 2.06681 40.2436 2.04593C40.2019 2.02506 40.1601 1.96243 40.1184 1.87892L39.7012 1.18998V2.50522C39.7012 2.56785 39.6803 2.63048 39.6386 2.67224C39.5969 2.71399 39.5343 2.73487 39.4717 2.73487H39.3257C39.2422 2.73487 39.2005 2.71399 39.1588 2.67224Z" fill="black"/>
</g>
<defs>
<clipPath id="clip0_146_64">
<rect width="75" height="60" fill="white"/>
</clipPath>
</defs>
</svg>
