<svg width="13" height="7" viewBox="0 0 13 7" fill="none" xmlns="http://www.w3.org/2000/svg">
<path d="M6.37389 6.99934C6.59063 6.9943 6.79777 6.90898 6.95512 6.76001L12.4255 1.50842C12.6504 1.29076 12.7424 0.969936 12.667 0.666173C12.5914 0.362432 12.36 0.121867 12.0594 0.0347309C11.7588 -0.052424 11.4346 0.0271 11.2084 0.243537L6.34641 4.9137L1.48439 0.243536C1.25819 0.0270996 0.933992 -0.0524212 0.633471 0.0347299C0.332782 0.121885 0.101396 0.362435 0.025827 0.666171C-0.0495753 0.969911 0.0424628 1.29073 0.267293 1.50842L5.7377 6.76001C5.9088 6.92226 6.13805 7.0085 6.37356 6.99934L6.37389 6.99934Z" fill="#CE2A37"/>
</svg>
