<svg width="16" height="16" viewBox="0 0 16 16" fill="none" xmlns="http://www.w3.org/2000/svg">
<path opacity="0.4" d="M15.7248 14.4865L12.8551 11.6364C15.0959 8.7667 14.8601 4.67819 12.2851 2.10326C10.9288 0.746962 9.12044 0 7.19416 0C5.26791 0 3.45952 0.746962 2.10326 2.10326C0.746962 3.45956 0 5.26787 0 7.19415C0 9.12044 0.746962 10.9288 2.10326 12.2851C3.45956 13.6413 5.26787 14.3883 7.19416 14.3883C8.78625 14.3883 10.3588 13.8576 11.6167 12.8551L14.4668 15.7444C14.6437 15.9213 14.8599 16 15.0959 16C15.3317 16 15.5479 15.9017 15.725 15.7444C16.0787 15.4103 16.0787 14.8403 15.7248 14.4864L15.7248 14.4865ZM12.6193 7.19412C12.6193 8.6487 12.0494 10.0049 11.0272 11.027C10.0051 12.0492 8.62918 12.6191 7.1943 12.6191C5.75941 12.6191 4.38356 12.0492 3.36138 11.027C2.3392 10.0049 1.76928 8.62901 1.76928 7.19412C1.76928 5.73954 2.33924 4.38339 3.36138 3.36121C4.38353 2.33903 5.75941 1.76911 7.1943 1.76911C8.64887 1.76911 10.005 2.33906 11.0272 3.36121C12.0492 4.38321 12.6193 5.73951 12.6193 7.19412Z" fill="black"/>
</svg>
