<svg width="13" height="7" viewBox="0 0 13 7" fill="none" xmlns="http://www.w3.org/2000/svg">
<path d="M6.31898 6.99934C6.10224 6.9943 5.8951 6.90898 5.73775 6.76001L0.267344 1.50842C0.042514 1.29076 -0.0495257 0.969936 0.0258761 0.666172C0.10143 0.362432 0.332824 0.121867 0.633521 0.0347311C0.934057 -0.0524242 1.25824 0.0270999 1.48444 0.243537L6.34646 4.9137L11.2085 0.243537C11.4347 0.0271003 11.7589 -0.0524203 12.0594 0.0347311C12.3601 0.121886 12.5915 0.362436 12.667 0.666172C12.7424 0.969913 12.6504 1.29074 12.4256 1.50842L6.95517 6.76001C6.78407 6.92226 6.55482 7.0085 6.31932 6.99934H6.31898Z" fill="white"/>
</svg>
