<svg width="44" height="44" viewBox="0 0 44 44" fill="none" xmlns="http://www.w3.org/2000/svg">
<circle r="21" transform="matrix(1 -8.74228e-08 -8.74228e-08 -1 22 22)" stroke="white" stroke-opacity="0.5" stroke-width="2"/>
<path d="M27.9991 21.8756C27.9927 22.1543 27.883 22.4206 27.6914 22.6229L20.9394 29.6563C20.6596 29.9453 20.2471 30.0637 19.8565 29.9667C19.466 29.8696 19.1567 29.5721 19.0447 29.1855C18.9326 28.7991 19.0348 28.3823 19.3131 28.0914L25.3176 21.8403L19.3131 15.5891C19.0348 15.2983 18.9326 14.8814 19.0447 14.4951C19.1567 14.1085 19.466 13.811 19.8565 13.7138C20.247 13.6169 20.6595 13.7352 20.9394 14.0243L27.6914 21.0576C27.9 21.2776 28.0109 21.5724 27.9991 21.8752L27.9991 21.8756Z" fill="white" fill-opacity="0.5"/>
</svg>
