<svg width="29" height="22" viewBox="0 0 29 22" fill="none" xmlns="http://www.w3.org/2000/svg">
<path d="M28.1022 2.6023C27.0763 3.0455 25.9724 3.34344 24.8145 3.47855C25.9975 2.79013 26.9046 1.70251 27.3317 0.403702C26.225 1.04214 25.0009 1.50453 23.6961 1.75249C22.6525 0.673751 21.1657 0 19.519 0C16.3604 0 13.7978 2.48493 13.7978 5.55236C13.7978 5.9883 13.8478 6.41248 13.946 6.81909C9.19054 6.58725 4.97231 4.37527 2.15139 1.01571C1.65821 1.83617 1.37639 2.78867 1.37639 3.80728C1.37639 5.73293 2.38613 7.43544 3.92146 8.42922C2.98217 8.39988 2.10141 8.15175 1.32802 7.73354V7.804C1.32802 10.4958 3.30059 12.74 5.91901 13.2508C5.43905 13.377 4.9341 13.446 4.41157 13.446C4.04318 13.446 3.6851 13.4123 3.33573 13.3462C4.06365 15.5537 6.17729 17.1593 8.68269 17.2035C6.72335 18.6946 4.25599 19.5812 1.57453 19.5812C1.11215 19.5812 0.657175 19.5547 0.208008 19.5035C2.74275 21.0797 5.74876 22 8.98208 22C19.5086 22 25.2651 13.5342 25.2651 6.19548L25.249 5.47626C26.3643 4.6953 27.3346 3.7178 28.1022 2.6023Z" fill="#05A062"/>
</svg>
