<svg width="71" height="74" viewBox="0 0 71 74" fill="none" xmlns="http://www.w3.org/2000/svg">
<path d="M68.5509 44.6705L62.6164 40.5276C62.9525 37.9521 62.9525 35.9365 62.6164 33.3614L68.5509 29.3302C70.2304 28.3224 70.7903 26.1946 69.8948 24.5151L63.6242 13.6534C62.6164 11.9739 60.4886 11.414 58.9213 12.3095L52.3146 15.3329C50.4112 13.8773 48.3957 12.7574 46.1561 11.7496L45.5961 4.58332C45.5961 2.67988 44.0284 1 42.125 1H29.3593C27.4559 1 25.8882 2.56772 25.8882 4.47115L25.216 11.7496C22.9765 12.6451 20.9609 13.8773 19.0575 15.3329L12.563 12.3095C11.7791 11.8617 10.7713 11.7495 9.87568 11.9734C8.98004 12.1973 8.19618 12.7573 7.74791 13.6529L1.4773 24.5151C0.469513 26.1946 1.14121 28.3224 2.70899 29.3302L8.64349 33.473C8.3074 36.0485 8.3074 37.952 8.64349 40.5275L2.82063 44.6703C1.14114 45.6781 0.581223 47.8059 1.47673 49.4854L7.74734 60.3471C8.19513 61.131 8.97903 61.691 9.8751 62.0266C10.7707 62.2505 11.7785 62.1388 12.4506 61.6905L19.0573 58.6671C20.9608 60.1227 22.9762 61.3544 25.2158 62.2504L25.7758 69.4167C25.7758 71.3201 27.3435 73 29.2469 73H41.7881C43.6916 73 45.2593 71.4323 45.2593 69.5289L45.8193 62.3626C48.0587 61.467 49.9621 60.347 51.9777 58.7793L58.4723 61.8027C60.1518 62.8105 62.2795 62.2505 63.2873 60.4588L69.558 49.5971C70.7902 47.8059 70.2302 45.5664 68.5507 44.6704L68.5509 44.6705ZM67.8792 48.2538L61.6086 59.1155C61.2725 59.7872 60.4886 59.8994 59.7052 59.5633L52.5389 56.2038C52.2028 55.9799 51.755 56.0916 51.4189 56.316C49.1795 58.1076 47.0516 59.2271 44.5883 60.2349C44.1405 60.3471 43.9166 60.7949 43.9166 61.1305L43.2449 69.0806C43.2449 69.7523 42.6849 70.4245 42.0132 70.4245L29.3593 70.425C28.6876 70.425 28.1276 69.865 28.0154 69.0811L27.3437 61.131C27.3437 60.6832 27.0076 60.3471 26.672 60.1232C24.2086 59.2276 21.9691 57.8838 19.9536 56.2043C19.6175 55.9804 19.1697 55.8682 18.7219 56.0921L11.4435 59.4516C11.1074 59.6755 10.7718 59.6755 10.4357 59.5638C10.0997 59.4516 9.76406 59.2277 9.65186 59.0038L3.38125 48.1421C3.04516 47.4704 3.26905 46.6865 3.94125 46.3504L10.4353 41.9831C10.7714 41.7592 10.9953 41.3114 10.8831 40.8631C10.4353 37.952 10.4353 35.9364 10.8831 33.0247C10.9953 32.5769 10.7709 32.1291 10.4353 31.9047L3.82856 27.3136C3.15687 26.9775 3.04468 26.1936 3.38077 25.5219L9.65138 14.6602C9.87528 14.3241 10.0992 14.1002 10.4353 14.1002C10.7714 13.988 11.107 14.1002 11.5553 14.3241L18.7215 17.6836C19.0576 17.9075 19.6171 17.7958 19.9532 17.5714C21.9688 15.8919 24.2082 14.6603 26.6716 13.6525C27.1193 13.5403 27.3432 13.0925 27.3432 12.7569L28.0149 4.69463C28.0149 4.02293 28.5749 3.35072 29.2466 3.35072H41.7878C42.4595 3.35072 43.0195 3.91071 43.1318 4.69463L43.8034 12.6447C43.8034 13.0925 44.1395 13.4286 44.4751 13.5403C46.9385 14.5481 49.2902 15.7797 51.1935 17.4592C51.5296 17.6831 51.9774 17.7953 52.4252 17.5714L59.7036 14.2119C60.2636 13.8758 61.1592 14.0997 61.4953 14.6597L67.7659 25.5214C68.102 26.1931 67.8781 26.977 67.2059 27.3131L60.8245 31.9052C60.4884 32.1291 60.2645 32.5769 60.3767 33.0252C60.8245 35.9363 60.8245 37.8403 60.3767 40.8637C60.2645 41.3115 60.4889 41.7593 60.8245 41.9837L67.3191 46.5748H67.4313C67.9908 46.9099 68.2147 47.6938 67.8791 48.2538H67.8792Z" fill="#05A062" stroke="#05A062"/>
<path d="M35.6305 18.3551C25.3287 18.3551 17.042 26.7535 17.042 36.9436C17.042 47.1338 25.4404 55.5322 35.6305 55.5322C45.8207 55.5322 54.2191 47.246 54.2191 36.9436C54.2191 26.6413 45.9329 18.3551 35.6305 18.3551ZM44.0289 50.9403L40.5578 47.2452C41.7894 46.6852 42.7972 45.9013 43.805 45.0058C44.8128 43.998 45.5966 42.878 46.0444 41.8702L49.7395 45.3414C48.2839 47.5813 46.38 49.5969 44.0288 50.9403H44.0289ZM38.2061 31.4562L34.8465 28.0967C42.7966 27.0889 48.3961 37.1668 42.2371 43.4373C36.1904 49.484 26.0011 44.4451 26.8966 36.1589L30.2561 39.5184C30.48 39.7423 30.7039 39.8545 31.04 39.8545H37.4227C37.9827 39.8545 38.5427 39.4067 38.5427 38.7345V32.3517C38.5417 32.0161 38.43 31.68 38.2061 31.4561L38.2061 31.4562ZM50.7473 43.2136L46.8284 39.5185C48.5079 31.6801 41.2295 23.3942 32.2715 26.4174C31.8238 26.5296 31.4877 26.9774 31.4877 27.5374C31.4877 27.8735 31.5999 28.0974 31.8238 28.3212L36.3027 32.8002V37.6153H31.4876L27.0087 33.1363C26.7848 32.9124 26.337 32.8002 26.0009 32.8002C25.6648 32.9124 25.3292 33.1363 25.217 33.5841C22.7537 41.1986 28.6882 48.3645 35.8549 48.3645C36.6388 48.3645 37.5344 48.2523 38.3183 48.0284L42.1256 52.0596C40.2221 52.8435 38.0944 53.2913 35.8549 53.2913C26.7849 53.2913 19.5058 45.9007 19.5058 36.9421C19.5058 27.8721 26.8964 20.593 35.8549 20.593C44.8128 20.593 52.2041 27.9836 52.2041 36.9421C51.9797 39.1815 51.5319 41.3094 50.748 43.2127L50.7473 43.2136Z" fill="black" stroke="black"/>
</svg>
