<svg width="44" height="44" viewBox="0 0 44 44" fill="none" xmlns="http://www.w3.org/2000/svg">
<circle cx="22" cy="22" r="21" stroke="#CE2A37" stroke-width="2"/>
<path d="M27.9991 22.1244C27.9927 21.8457 27.883 21.5794 27.6914 21.3771L20.9394 14.3437C20.6596 14.0547 20.2471 13.9363 19.8565 14.0333C19.466 14.1304 19.1567 14.4279 19.0447 14.8145C18.9326 15.2009 19.0348 15.6177 19.3131 15.9086L25.3176 22.1597L19.3131 28.4109C19.0348 28.7017 18.9326 29.1186 19.0447 29.5049C19.1567 29.8915 19.466 30.189 19.8565 30.2862C20.247 30.3831 20.6595 30.2648 20.9394 29.9757L27.6914 22.9424C27.9 22.7224 28.0109 22.4272 27.9991 22.1244Z" fill="#CE2A37"/>
</svg>
