<svg width="44" height="44" viewBox="0 0 44 44" fill="none" xmlns="http://www.w3.org/2000/svg">
<circle r="21" transform="matrix(-1 0 0 1 22 22)" stroke="#CE2A37" stroke-width="2"/>
<path d="M16.0009 22.1244C16.0073 21.8457 16.117 21.5794 16.3086 21.3771L23.0606 14.3437C23.3404 14.0547 23.7529 13.9363 24.1435 14.0333C24.534 14.1304 24.8433 14.4279 24.9553 14.8145C25.0674 15.2009 24.9652 15.6177 24.6869 15.9086L18.6824 22.1597L24.6869 28.4109C24.9652 28.7017 25.0674 29.1186 24.9553 29.5049C24.8433 29.8915 24.534 30.189 24.1435 30.2862C23.753 30.3831 23.3405 30.2648 23.0606 29.9757L16.3086 22.9424C16.1 22.7224 15.9891 22.4272 16.0009 22.1244Z" fill="#CE2A37"/>
</svg>
