<svg width="44" height="44" viewBox="0 0 44 44" fill="none" xmlns="http://www.w3.org/2000/svg">
<circle opacity="0.3" cx="22" cy="22" r="21" transform="rotate(-180 22 22)" stroke="#CE2A37" stroke-width="2"/>
<path opacity="0.3" d="M16.0009 21.8756C16.0073 22.1543 16.117 22.4206 16.3086 22.6229L23.0606 29.6563C23.3404 29.9453 23.7529 30.0637 24.1435 29.9667C24.534 29.8696 24.8433 29.5721 24.9553 29.1855C25.0674 28.7991 24.9652 28.3823 24.6869 28.0914L18.6824 21.8403L24.6869 15.5891C24.9652 15.2983 25.0674 14.8814 24.9553 14.4951C24.8433 14.1085 24.534 13.811 24.1435 13.7138C23.753 13.6169 23.3405 13.7352 23.0606 14.0243L16.3086 21.0576C16.1 21.2776 15.9891 21.5724 16.0009 21.8752L16.0009 21.8756Z" fill="#CE2A37"/>
</svg>
