<svg width="9" height="17" viewBox="0 0 9 17" fill="none" xmlns="http://www.w3.org/2000/svg">
<path d="M8.99915 8.1244C8.99267 7.84573 8.88297 7.57942 8.69144 7.37711L1.9394 0.343728C1.65955 0.054661 1.24706 -0.0636758 0.856506 0.0332693C0.465983 0.13041 0.156686 0.427917 0.0446539 0.814527C-0.0674028 1.20093 0.0348416 1.61774 0.313118 1.90857L6.31761 8.15973L0.313118 14.4109C0.0348427 14.7017 -0.0673979 15.1186 0.0446541 15.5049C0.156711 15.8915 0.465988 16.189 0.856507 16.2862C1.24703 16.3831 1.65952 16.2648 1.9394 15.9757L8.69144 8.94236C8.90004 8.72238 9.01093 8.42719 8.99915 8.1244Z" fill="#CE2A37"/>
</svg>
