<svg width="27" height="26" viewBox="0 0 27 26" fill="none" xmlns="http://www.w3.org/2000/svg">
<path fill-rule="evenodd" clip-rule="evenodd" d="M5.53125 0C2.76978 0 0.53125 2.23853 0.53125 5V21C0.53125 23.7615 2.76978 26 5.53125 26H21.5312C24.2927 26 26.5312 23.7615 26.5312 21V5C26.5312 2.23853 24.2927 0 21.5312 0H5.53125ZM11.2605 10.6802V8.29065C11.2586 7.77271 11.2483 4.99976 14.9 5H17.5312V8.00452H15.596C15.2132 8.00452 14.8259 8.40125 14.8259 8.69617V10.6696H17.5275C17.4191 12.1826 17.1961 13.5664 17.1961 13.5664H14.8125V21H11.2605V13.5662H9.53125V10.6802H11.2605Z" fill="#05A062"/>
</svg>
