<svg width="16" height="16" viewBox="0 0 16 16" fill="none" xmlns="http://www.w3.org/2000/svg">
<path d="M11.2355 11.045C11.0162 10.8265 10.7218 10.7269 10.4286 10.7423L10.4298 10.7413C9.11761 10.7972 8.70175 11.8306 8.60831 12.1308C4.29053 10.7169 3.89453 7.40812 3.89453 7.40812L4.73086 6.23507L3.89453 7.40812C4.74914 7.05661 5.0795 6.42176 5.20771 5.97083C5.27598 5.80468 5.3032 5.62671 5.28851 5.45294V5.45616V5.45294C5.26822 5.21112 5.16761 4.97765 4.98606 4.79563L2.87823 2.68719C2.45941 2.26837 1.76366 2.28114 1.32849 2.71631L0.734342 3.31382L0.750455 3.32994C0.551249 3.58417 0.38486 3.87731 0.260866 4.19349C0.146641 4.49451 0.0755049 4.78156 0.0430398 5.06933C-0.235182 7.37709 0.819208 9.48581 3.68097 12.3476C7.63667 16.303 10.8245 16.0042 10.962 15.9895C11.2615 15.9538 11.5485 15.8821 11.8404 15.7688C12.1537 15.6464 12.4467 15.4802 12.7007 15.2814L12.7136 15.293L13.3155 14.7036C13.7497 14.2684 13.7622 13.5731 13.3436 13.1529L11.2355 11.045ZM5.28816 5.46463V5.4589V5.46463ZM5.24615 5.81256C5.24615 5.8122 5.24639 5.81161 5.24639 5.81125C5.24639 5.81185 5.24639 5.8122 5.24615 5.81256ZM5.28792 5.47812C5.28792 5.47621 5.28792 5.4743 5.28816 5.47263C5.28792 5.47454 5.28792 5.47621 5.28792 5.47812ZM15.095 9.91507C14.6596 9.91507 14.3065 9.56201 14.3065 9.12659C14.3065 4.96403 10.9197 1.57696 6.75687 1.57696C6.32146 1.57696 5.96839 1.2239 5.96839 0.788482C5.96839 0.353068 6.32146 0 6.75687 0C9.19461 0 11.4865 0.949234 13.2102 2.67311C14.9338 4.39698 15.8833 6.6887 15.8833 9.12641C15.8834 9.56194 15.5306 9.91501 15.0949 9.91501L15.095 9.91507ZM12.0012 9.54923C11.5658 9.54923 11.2128 9.19617 11.2128 8.76075C11.2128 6.50549 9.37813 4.67091 7.12293 4.67091C6.68751 4.67091 6.33445 4.31784 6.33445 3.88243C6.33445 3.44702 6.68751 3.09395 7.12293 3.09395C10.2475 3.09395 12.7897 5.63613 12.7897 8.76075C12.7897 9.19617 12.4368 9.54923 12.0012 9.54923V9.54923Z" fill="black"/>
</svg>
