<svg width="27" height="26" viewBox="0 0 27 26" fill="none" xmlns="http://www.w3.org/2000/svg">
<path d="M21.1146 0H5.94792C2.95683 0 0.53125 2.42558 0.53125 5.41667V20.5833C0.53125 23.5744 2.95683 26 5.94792 26H21.1146C24.1068 26 26.5312 23.5744 26.5312 20.5833V5.41667C26.5312 2.42558 24.1068 0 21.1146 0ZM9.19792 20.5833H5.94792V8.66667H9.19792V20.5833ZM7.57292 7.293C6.52642 7.293 5.67708 6.43717 5.67708 5.382C5.67708 4.32683 6.52642 3.471 7.57292 3.471C8.61942 3.471 9.46875 4.32683 9.46875 5.382C9.46875 6.43717 8.6205 7.293 7.57292 7.293ZM22.1979 20.5833H18.9479V14.5123C18.9479 10.8637 14.6146 11.1399 14.6146 14.5123V20.5833H11.3646V8.66667H14.6146V10.5788C16.1269 7.77725 22.1979 7.57033 22.1979 13.2611V20.5833Z" fill="#05A062"/>
</svg>
