<svg width="22" height="27" viewBox="0 0 22 27" fill="none" xmlns="http://www.w3.org/2000/svg">
<path d="M12.8708 12.0372C12.3064 11.4266 11.7491 10.7442 11.2471 10.1303C11.0104 9.8402 10.784 9.56354 10.572 9.31226L10.5563 9.29397C10.8664 8.43631 11.0439 7.73446 11.0834 7.20729C11.1839 5.86453 11.0294 4.99954 10.6115 4.56358C10.3292 4.26862 9.90524 4.16583 9.50661 4.29604C9.22097 4.38888 8.83423 4.63793 8.61325 5.29552C8.28387 6.2757 8.44353 8.01172 9.37997 9.44757C8.96207 10.51 8.37946 11.7307 7.73595 12.8931C6.51049 13.3101 5.53366 13.8584 4.83262 14.5237C3.91665 15.3915 3.54438 16.2531 3.81079 16.8867C3.97486 17.2792 4.35444 17.5134 4.82571 17.5134C5.15384 17.5134 5.50875 17.3984 5.85236 17.181C6.71975 16.6305 7.8521 14.7967 8.4596 13.7341C9.71624 13.3532 10.9572 13.1974 11.5877 13.1383C11.873 13.1115 12.1563 13.0902 12.429 13.0753C13.5327 14.2069 14.4354 14.8034 15.267 14.9524C15.4345 14.9827 15.6019 14.9979 15.7653 14.9979C16.4431 14.9979 17.0031 14.7354 17.2645 14.296C17.4616 13.9641 17.4576 13.5767 17.2534 13.233C16.7919 12.4574 15.3993 12.0306 13.332 12.0306C13.1834 12.0306 13.0298 12.0326 12.8707 12.0373L12.8708 12.0372ZM5.27699 16.3276C5.11292 16.4316 4.94426 16.4935 4.82539 16.4935C4.80279 16.4935 4.78752 16.4913 4.77894 16.4891C4.75822 16.3875 4.83272 15.9479 5.56618 15.2524C5.91063 14.9257 6.34613 14.6273 6.86197 14.3636C6.21118 15.3799 5.62564 16.1066 5.27699 16.3276L5.27699 16.3276ZM9.61107 5.61202C9.68766 5.3845 9.78245 5.28171 9.84147 5.26261C9.84293 5.26241 9.84419 5.2618 9.84544 5.2614C9.90237 5.32376 10.1449 5.67987 10.0363 7.13419C10.0175 7.38791 9.95384 7.70847 9.8467 8.08936C9.49618 7.2136 9.39992 6.24033 9.61107 5.61201L9.61107 5.61202ZM11.4865 12.124C10.928 12.1763 10.0771 12.2837 9.1279 12.5017C9.496 11.7882 9.83687 11.0651 10.1215 10.3949C10.2203 10.5149 10.3214 10.638 10.4239 10.7642C10.7673 11.1845 11.1532 11.6568 11.5531 12.1181L11.4865 12.124ZM16.3431 13.7427C16.3588 13.7689 16.3584 13.7795 16.3544 13.7864C16.3103 13.8607 16.1108 13.9785 15.7637 13.9785C15.6668 13.9785 15.5636 13.969 15.4571 13.9497C15.0239 13.8719 14.5188 13.5812 13.9165 13.063C15.5507 13.1387 16.2109 13.521 16.3431 13.7427L16.3431 13.7427Z" fill="white"/>
<path d="M15.0933 0.129456H1.50902C0.676563 0.129456 0 0.784401 0 1.59453V24.8744C0 25.6837 0.676563 26.3395 1.50902 26.3395H19.6212C20.4556 26.3395 21.1302 25.6837 21.1302 24.8744V5.98996L15.0933 0.129456ZM15.0933 2.2009L18.9967 5.99011H15.0933V2.2009ZM19.6216 24.8749H1.5094V1.59453H13.584V5.98996C13.584 6.79925 14.2591 7.45503 15.093 7.45503H19.6213V24.8745L19.6216 24.8749Z" fill="white"/>
<path d="M8.06875 18.8738C7.94549 18.7682 7.79754 18.6912 7.6295 18.6461C7.46355 18.6 7.22604 18.5768 6.92321 18.5768H5.91853C5.72747 18.5768 5.5835 18.6193 5.49017 18.704C5.396 18.7895 5.34766 18.9283 5.34766 19.1156V22.0081C5.34766 22.1765 5.39056 22.3075 5.4751 22.3984C5.56111 22.4916 5.67578 22.5389 5.81557 22.5389C5.94929 22.5389 6.06209 22.4914 6.1504 22.3977C6.23682 22.3057 6.28098 22.1729 6.28098 22.003V21.0138H6.92319C7.41915 21.0138 7.8 20.9085 8.05489 20.7009C8.31417 20.4907 8.4458 20.1797 8.4458 19.7762C8.4458 19.5883 8.41399 19.4166 8.3508 19.2651C8.28718 19.1119 8.19239 18.9805 8.06871 18.8738L8.06875 18.8738ZM7.41962 20.0833C7.36354 20.1567 7.28339 20.2083 7.17415 20.2414C7.05801 20.2763 6.91006 20.2944 6.73365 20.2944H6.28143V19.2931H6.73386C7.14151 19.2931 7.30681 19.3721 7.37254 19.4363C7.46022 19.5271 7.5027 19.6433 7.5027 19.791C7.5027 19.9129 7.47466 20.0112 7.41962 20.0833L7.41962 20.0833Z" fill="white"/>
<path d="M11.7774 18.9338C11.6146 18.7955 11.4302 18.6996 11.23 18.6492C11.0349 18.6003 10.7985 18.5753 10.5283 18.5753H9.50789C9.31913 18.5753 9.17809 18.6192 9.08852 18.7067C8.99874 18.7941 8.95312 18.931 8.95312 19.1138V21.8654C8.95312 21.9944 8.96484 22.0978 8.98891 22.1809C9.01611 22.2752 9.07492 22.3489 9.16344 22.3999C9.24777 22.4495 9.366 22.4732 9.5238 22.4732H10.5442C10.7248 22.4732 10.8899 22.4618 11.0347 22.4391C11.1822 22.4157 11.3224 22.3751 11.4507 22.3182C11.5803 22.2609 11.701 22.1833 11.8105 22.0879C11.9475 21.9656 12.0618 21.8248 12.1501 21.669C12.2374 21.5138 12.3031 21.3376 12.3445 21.1459C12.3859 20.9559 12.4069 20.743 12.4069 20.5139C12.4064 19.8129 12.1945 19.281 11.7774 18.9338L11.7774 18.9338ZM11.0954 21.5658C11.0448 21.6086 10.9839 21.643 10.9142 21.6671C10.8414 21.6921 10.7705 21.7082 10.7031 21.7143C10.6319 21.7208 10.5315 21.7242 10.4042 21.7242H9.88589V19.3226H10.3279C10.5591 19.3226 10.7575 19.347 10.9176 19.3951C11.0672 19.4394 11.1963 19.5469 11.301 19.7153C11.4083 19.8874 11.4629 20.1545 11.4629 20.5094C11.4631 21.0102 11.3397 21.3651 11.0955 21.5657L11.0954 21.5658Z" fill="white"/>
<path d="M15.3343 18.5768H13.4886C13.3655 18.5768 13.2659 18.5945 13.1843 18.6311C13.097 18.6694 13.0319 18.732 12.9905 18.8175C12.952 18.8974 12.9336 18.9949 12.9336 19.1158V22.0031C12.9336 22.177 12.9773 22.3106 13.0629 22.4002C13.1502 22.4922 13.2642 22.5392 13.4017 22.5392C13.5365 22.5392 13.6495 22.493 13.7378 22.402C13.8236 22.312 13.8671 22.1778 13.8671 22.0031V20.8397H15.0815C15.2173 20.8397 15.3238 20.808 15.3975 20.7448C15.4741 20.6792 15.5128 20.5912 15.5128 20.4829C15.5128 20.3749 15.4749 20.2867 15.4 20.2209C15.3272 20.1563 15.22 20.1236 15.0817 20.1236H13.8673V19.3094H15.3349C15.4787 19.3094 15.5894 19.2759 15.6641 19.2094C15.7407 19.1418 15.7794 19.0518 15.7794 18.9421C15.7794 18.8346 15.7407 18.7455 15.6639 18.6768C15.5877 18.61 15.4774 18.5768 15.3343 18.5768L15.3343 18.5768Z" fill="white"/>
</svg>
