<svg width="35" height="20" viewBox="0 0 35 20" fill="none" xmlns="http://www.w3.org/2000/svg">
<path fill-rule="evenodd" clip-rule="evenodd" d="M33.4349 1.35427C33.669 0.573623 33.4349 0 32.3207 0H28.6365C27.6998 0 27.2679 0.495525 27.0337 1.04195C27.0337 1.04195 25.1601 5.60867 22.506 8.57505C21.6473 9.43373 21.257 9.70694 20.7886 9.70694C20.5544 9.70694 20.2154 9.43373 20.2154 8.65315V1.35427C20.2154 0.417495 19.9435 0 19.1628 0H13.3734C12.788 0 12.4359 0.434779 12.4359 0.846835C12.4359 1.73488 13.7629 1.93967 13.8997 4.43773V9.86313C13.8997 11.0526 13.6849 11.2683 13.2165 11.2683C11.9675 11.2683 8.9294 6.68117 7.12752 1.4323C6.77439 0.412106 6.42021 0 5.47863 0H1.79442C0.741787 0 0.53125 0.495525 0.53125 1.04195C0.53125 2.01777 1.78028 6.8577 6.34694 13.2589C9.39135 17.6303 13.6807 20 17.5839 20C19.9258 20 20.2155 19.4737 20.2155 18.5671V15.2632C20.2155 14.2105 20.4373 14.0005 21.1789 14.0005C21.7253 14.0005 22.6621 14.2737 24.8479 16.3814C27.3459 18.8794 27.7577 20 29.1628 20H32.847C33.8997 20 34.426 19.4737 34.1224 18.435C33.7901 17.3998 32.5975 15.8979 31.0149 14.1175C30.1562 13.1027 28.8682 12.0099 28.4778 11.4633C27.9314 10.7609 28.0875 10.4485 28.4778 9.82408C28.4778 9.82408 32.9665 3.50096 33.4349 1.35427Z" fill="#05A062"/>
</svg>
